<mxfile host="Electron" agent="Mozilla/5.0 (X11; Linux x86_64) AppleWebKit/537.36 (KHTML, like Gecko) draw.io/26.1.1 Chrome/132.0.6834.210 Electron/34.3.3 Safari/537.36" version="26.1.1">
  <diagram name="第 1 页" id="BQ_gom294Ll4Qk_Bm3M0">
    <mxGraphModel dx="1801" dy="1771" grid="1" gridSize="10" guides="1" tooltips="1" connect="1" arrows="1" fold="1" page="1" pageScale="1" pageWidth="827" pageHeight="1169" math="0" shadow="0">
      <root>
        <mxCell id="0" />
        <mxCell id="1" parent="0" />
        <mxCell id="AZ9LOgBD5vrPbiylxJBQ-1" value="DomainParticipant" style="swimlane;fontStyle=0;childLayout=stackLayout;horizontal=1;startSize=26;fillColor=none;horizontalStack=0;resizeParent=1;resizeParentMax=0;resizeLast=0;collapsible=1;marginBottom=0;whiteSpace=wrap;html=1;" vertex="1" parent="1">
          <mxGeometry x="265" y="246" width="190" height="52" as="geometry" />
        </mxCell>
        <mxCell id="AZ9LOgBD5vrPbiylxJBQ-2" value="+&amp;nbsp;DomainParticipantImpl* impl_" style="text;strokeColor=none;fillColor=none;align=left;verticalAlign=top;spacingLeft=4;spacingRight=4;overflow=hidden;rotatable=0;points=[[0,0.5],[1,0.5]];portConstraint=eastwest;whiteSpace=wrap;html=1;" vertex="1" parent="AZ9LOgBD5vrPbiylxJBQ-1">
          <mxGeometry y="26" width="190" height="26" as="geometry" />
        </mxCell>
        <mxCell id="AZ9LOgBD5vrPbiylxJBQ-9" value="Entity" style="swimlane;fontStyle=0;childLayout=stackLayout;horizontal=1;startSize=26;fillColor=none;horizontalStack=0;resizeParent=1;resizeParentMax=0;resizeLast=0;collapsible=1;marginBottom=0;whiteSpace=wrap;html=1;" vertex="1" parent="1">
          <mxGeometry x="-20" y="-20" width="140" height="52" as="geometry" />
        </mxCell>
        <mxCell id="AZ9LOgBD5vrPbiylxJBQ-14" value="Topic" style="swimlane;fontStyle=0;childLayout=stackLayout;horizontal=1;startSize=26;fillColor=none;horizontalStack=0;resizeParent=1;resizeParentMax=0;resizeLast=0;collapsible=1;marginBottom=0;whiteSpace=wrap;html=1;" vertex="1" parent="1">
          <mxGeometry x="-160" y="356" width="140" height="52" as="geometry" />
        </mxCell>
        <mxCell id="AZ9LOgBD5vrPbiylxJBQ-15" value="+ TopicProxy* impl_" style="text;strokeColor=none;fillColor=none;align=left;verticalAlign=top;spacingLeft=4;spacingRight=4;overflow=hidden;rotatable=0;points=[[0,0.5],[1,0.5]];portConstraint=eastwest;whiteSpace=wrap;html=1;" vertex="1" parent="AZ9LOgBD5vrPbiylxJBQ-14">
          <mxGeometry y="26" width="140" height="26" as="geometry" />
        </mxCell>
        <mxCell id="AZ9LOgBD5vrPbiylxJBQ-22" value="TopicDescription" style="swimlane;fontStyle=0;childLayout=stackLayout;horizontal=1;startSize=26;fillColor=none;horizontalStack=0;resizeParent=1;resizeParentMax=0;resizeLast=0;collapsible=1;marginBottom=0;whiteSpace=wrap;html=1;" vertex="1" parent="1">
          <mxGeometry x="-60" y="210" width="180" height="78" as="geometry" />
        </mxCell>
        <mxCell id="AZ9LOgBD5vrPbiylxJBQ-23" value="+ std::string name_" style="text;strokeColor=none;fillColor=none;align=left;verticalAlign=top;spacingLeft=4;spacingRight=4;overflow=hidden;rotatable=0;points=[[0,0.5],[1,0.5]];portConstraint=eastwest;whiteSpace=wrap;html=1;" vertex="1" parent="AZ9LOgBD5vrPbiylxJBQ-22">
          <mxGeometry y="26" width="180" height="26" as="geometry" />
        </mxCell>
        <mxCell id="AZ9LOgBD5vrPbiylxJBQ-24" value="+ std::string type_name_" style="text;strokeColor=none;fillColor=none;align=left;verticalAlign=top;spacingLeft=4;spacingRight=4;overflow=hidden;rotatable=0;points=[[0,0.5],[1,0.5]];portConstraint=eastwest;whiteSpace=wrap;html=1;" vertex="1" parent="AZ9LOgBD5vrPbiylxJBQ-22">
          <mxGeometry y="52" width="180" height="26" as="geometry" />
        </mxCell>
        <mxCell id="AZ9LOgBD5vrPbiylxJBQ-28" value="&lt;span style=&quot;text-align: left;&quot;&gt;DomainParticipantImpl&lt;/span&gt;" style="swimlane;fontStyle=0;childLayout=stackLayout;horizontal=1;startSize=26;fillColor=none;horizontalStack=0;resizeParent=1;resizeParentMax=0;resizeLast=0;collapsible=1;marginBottom=0;whiteSpace=wrap;html=1;" vertex="1" parent="1">
          <mxGeometry x="190" y="420" width="380" height="182" as="geometry" />
        </mxCell>
        <mxCell id="AZ9LOgBD5vrPbiylxJBQ-29" value="+&amp;nbsp;fastrtps::rtps::RTPSParticipant* rtps_participant_" style="text;strokeColor=none;fillColor=none;align=left;verticalAlign=top;spacingLeft=4;spacingRight=4;overflow=hidden;rotatable=0;points=[[0,0.5],[1,0.5]];portConstraint=eastwest;whiteSpace=wrap;html=1;" vertex="1" parent="AZ9LOgBD5vrPbiylxJBQ-28">
          <mxGeometry y="26" width="380" height="26" as="geometry" />
        </mxCell>
        <mxCell id="AZ9LOgBD5vrPbiylxJBQ-32" value="+ std::map&amp;lt;InstanceHandle_t, Topic*&amp;gt; topics_by_handle_" style="text;strokeColor=none;fillColor=none;align=left;verticalAlign=top;spacingLeft=4;spacingRight=4;overflow=hidden;rotatable=0;points=[[0,0.5],[1,0.5]];portConstraint=eastwest;whiteSpace=wrap;html=1;" vertex="1" parent="AZ9LOgBD5vrPbiylxJBQ-28">
          <mxGeometry y="52" width="380" height="26" as="geometry" />
        </mxCell>
        <mxCell id="AZ9LOgBD5vrPbiylxJBQ-63" value="+&amp;nbsp;std::map&amp;lt;Publisher*, PublisherImpl*&amp;gt; publishers_" style="text;strokeColor=none;fillColor=none;align=left;verticalAlign=top;spacingLeft=4;spacingRight=4;overflow=hidden;rotatable=0;points=[[0,0.5],[1,0.5]];portConstraint=eastwest;whiteSpace=wrap;html=1;" vertex="1" parent="AZ9LOgBD5vrPbiylxJBQ-28">
          <mxGeometry y="78" width="380" height="26" as="geometry" />
        </mxCell>
        <mxCell id="AZ9LOgBD5vrPbiylxJBQ-31" value="+ std::map&amp;lt;InstanceHandle_t, Publisher*&amp;gt; publishers_by_handle_" style="text;strokeColor=none;fillColor=none;align=left;verticalAlign=top;spacingLeft=4;spacingRight=4;overflow=hidden;rotatable=0;points=[[0,0.5],[1,0.5]];portConstraint=eastwest;whiteSpace=wrap;html=1;" vertex="1" parent="AZ9LOgBD5vrPbiylxJBQ-28">
          <mxGeometry y="104" width="380" height="26" as="geometry" />
        </mxCell>
        <mxCell id="AZ9LOgBD5vrPbiylxJBQ-58" style="text;strokeColor=none;fillColor=none;align=left;verticalAlign=top;spacingLeft=4;spacingRight=4;overflow=hidden;rotatable=0;points=[[0,0.5],[1,0.5]];portConstraint=eastwest;whiteSpace=wrap;html=1;" vertex="1" parent="AZ9LOgBD5vrPbiylxJBQ-28">
          <mxGeometry y="130" width="380" height="26" as="geometry" />
        </mxCell>
        <mxCell id="AZ9LOgBD5vrPbiylxJBQ-57" style="text;strokeColor=none;fillColor=none;align=left;verticalAlign=top;spacingLeft=4;spacingRight=4;overflow=hidden;rotatable=0;points=[[0,0.5],[1,0.5]];portConstraint=eastwest;whiteSpace=wrap;html=1;" vertex="1" parent="AZ9LOgBD5vrPbiylxJBQ-28">
          <mxGeometry y="156" width="380" height="26" as="geometry" />
        </mxCell>
        <mxCell id="AZ9LOgBD5vrPbiylxJBQ-33" value="&lt;span style=&quot;text-align: left;&quot;&gt;RTPSParticipant&lt;/span&gt;" style="swimlane;fontStyle=0;childLayout=stackLayout;horizontal=1;startSize=26;fillColor=none;horizontalStack=0;resizeParent=1;resizeParentMax=0;resizeLast=0;collapsible=1;marginBottom=0;whiteSpace=wrap;html=1;" vertex="1" parent="1">
          <mxGeometry x="265" y="680" width="210" height="52" as="geometry" />
        </mxCell>
        <mxCell id="AZ9LOgBD5vrPbiylxJBQ-34" value="+&amp;nbsp;RTPSParticipantImpl* mp_impl" style="text;strokeColor=none;fillColor=none;align=left;verticalAlign=top;spacingLeft=4;spacingRight=4;overflow=hidden;rotatable=0;points=[[0,0.5],[1,0.5]];portConstraint=eastwest;whiteSpace=wrap;html=1;" vertex="1" parent="AZ9LOgBD5vrPbiylxJBQ-33">
          <mxGeometry y="26" width="210" height="26" as="geometry" />
        </mxCell>
        <mxCell id="AZ9LOgBD5vrPbiylxJBQ-37" value="" style="endArrow=block;dashed=1;endFill=0;endSize=12;html=1;rounded=0;entryX=0.5;entryY=1;entryDx=0;entryDy=0;" edge="1" parent="1" source="AZ9LOgBD5vrPbiylxJBQ-1" target="AZ9LOgBD5vrPbiylxJBQ-9">
          <mxGeometry width="160" relative="1" as="geometry">
            <mxPoint x="110" y="400" as="sourcePoint" />
            <mxPoint x="270" y="400" as="targetPoint" />
          </mxGeometry>
        </mxCell>
        <mxCell id="AZ9LOgBD5vrPbiylxJBQ-38" value="" style="endArrow=diamondThin;endFill=1;endSize=24;html=1;rounded=0;entryX=0.5;entryY=1;entryDx=0;entryDy=0;exitX=0.456;exitY=0;exitDx=0;exitDy=0;exitPerimeter=0;" edge="1" parent="1" source="AZ9LOgBD5vrPbiylxJBQ-28" target="AZ9LOgBD5vrPbiylxJBQ-1">
          <mxGeometry width="160" relative="1" as="geometry">
            <mxPoint x="110" y="300" as="sourcePoint" />
            <mxPoint x="270" y="300" as="targetPoint" />
          </mxGeometry>
        </mxCell>
        <mxCell id="AZ9LOgBD5vrPbiylxJBQ-39" value="" style="endArrow=diamondThin;endFill=1;endSize=24;html=1;rounded=0;exitX=0.5;exitY=0;exitDx=0;exitDy=0;entryX=0.461;entryY=1.038;entryDx=0;entryDy=0;entryPerimeter=0;" edge="1" parent="1" source="AZ9LOgBD5vrPbiylxJBQ-33" target="AZ9LOgBD5vrPbiylxJBQ-57">
          <mxGeometry width="160" relative="1" as="geometry">
            <mxPoint x="321" y="580" as="sourcePoint" />
            <mxPoint x="280" y="600" as="targetPoint" />
          </mxGeometry>
        </mxCell>
        <mxCell id="AZ9LOgBD5vrPbiylxJBQ-40" value="RTPSParticipantImpl" style="swimlane;fontStyle=0;childLayout=stackLayout;horizontal=1;startSize=26;fillColor=none;horizontalStack=0;resizeParent=1;resizeParentMax=0;resizeLast=0;collapsible=1;marginBottom=0;whiteSpace=wrap;html=1;" vertex="1" parent="1">
          <mxGeometry x="200" y="830" width="340" height="104" as="geometry" />
        </mxCell>
        <mxCell id="AZ9LOgBD5vrPbiylxJBQ-41" value="+ fastdds::rtps::SendResourceList send_resource_list_" style="text;strokeColor=none;fillColor=none;align=left;verticalAlign=top;spacingLeft=4;spacingRight=4;overflow=hidden;rotatable=0;points=[[0,0.5],[1,0.5]];portConstraint=eastwest;whiteSpace=wrap;html=1;" vertex="1" parent="AZ9LOgBD5vrPbiylxJBQ-40">
          <mxGeometry y="26" width="340" height="26" as="geometry" />
        </mxCell>
        <mxCell id="AZ9LOgBD5vrPbiylxJBQ-42" value="+ RTPSParticipant* mp_userParticipant" style="text;strokeColor=none;fillColor=none;align=left;verticalAlign=top;spacingLeft=4;spacingRight=4;overflow=hidden;rotatable=0;points=[[0,0.5],[1,0.5]];portConstraint=eastwest;whiteSpace=wrap;html=1;" vertex="1" parent="AZ9LOgBD5vrPbiylxJBQ-40">
          <mxGeometry y="52" width="340" height="26" as="geometry" />
        </mxCell>
        <mxCell id="AZ9LOgBD5vrPbiylxJBQ-43" value="+ field: type" style="text;strokeColor=none;fillColor=none;align=left;verticalAlign=top;spacingLeft=4;spacingRight=4;overflow=hidden;rotatable=0;points=[[0,0.5],[1,0.5]];portConstraint=eastwest;whiteSpace=wrap;html=1;" vertex="1" parent="AZ9LOgBD5vrPbiylxJBQ-40">
          <mxGeometry y="78" width="340" height="26" as="geometry" />
        </mxCell>
        <mxCell id="AZ9LOgBD5vrPbiylxJBQ-44" value="" style="endArrow=diamondThin;endFill=1;endSize=24;html=1;rounded=0;entryX=0.489;entryY=0.981;entryDx=0;entryDy=0;entryPerimeter=0;" edge="1" parent="1" source="AZ9LOgBD5vrPbiylxJBQ-40" target="AZ9LOgBD5vrPbiylxJBQ-34">
          <mxGeometry width="160" relative="1" as="geometry">
            <mxPoint x="60" y="399" as="sourcePoint" />
            <mxPoint x="190" y="399" as="targetPoint" />
          </mxGeometry>
        </mxCell>
        <mxCell id="AZ9LOgBD5vrPbiylxJBQ-45" value="DomainEntity" style="swimlane;fontStyle=0;childLayout=stackLayout;horizontal=1;startSize=26;fillColor=none;horizontalStack=0;resizeParent=1;resizeParentMax=0;resizeLast=0;collapsible=1;marginBottom=0;whiteSpace=wrap;html=1;" vertex="1" parent="1">
          <mxGeometry x="-350" y="140" width="140" height="52" as="geometry" />
        </mxCell>
        <mxCell id="AZ9LOgBD5vrPbiylxJBQ-49" value="" style="endArrow=block;dashed=1;endFill=0;endSize=12;html=1;rounded=0;entryX=0.25;entryY=1;entryDx=0;entryDy=0;exitX=0.5;exitY=0;exitDx=0;exitDy=0;" edge="1" parent="1" source="AZ9LOgBD5vrPbiylxJBQ-45" target="AZ9LOgBD5vrPbiylxJBQ-9">
          <mxGeometry width="160" relative="1" as="geometry">
            <mxPoint x="320" y="210" as="sourcePoint" />
            <mxPoint x="320" y="102" as="targetPoint" />
          </mxGeometry>
        </mxCell>
        <mxCell id="AZ9LOgBD5vrPbiylxJBQ-50" value="Publisher" style="swimlane;fontStyle=0;childLayout=stackLayout;horizontal=1;startSize=26;fillColor=none;horizontalStack=0;resizeParent=1;resizeParentMax=0;resizeLast=0;collapsible=1;marginBottom=0;whiteSpace=wrap;html=1;" vertex="1" parent="1">
          <mxGeometry x="-460" y="420" width="140" height="52" as="geometry" />
        </mxCell>
        <mxCell id="AZ9LOgBD5vrPbiylxJBQ-51" value="+&amp;nbsp;PublisherImpl* impl_" style="text;strokeColor=none;fillColor=none;align=left;verticalAlign=top;spacingLeft=4;spacingRight=4;overflow=hidden;rotatable=0;points=[[0,0.5],[1,0.5]];portConstraint=eastwest;whiteSpace=wrap;html=1;" vertex="1" parent="AZ9LOgBD5vrPbiylxJBQ-50">
          <mxGeometry y="26" width="140" height="26" as="geometry" />
        </mxCell>
        <mxCell id="AZ9LOgBD5vrPbiylxJBQ-54" value="" style="endArrow=block;dashed=1;endFill=0;endSize=12;html=1;rounded=0;entryX=0.5;entryY=1;entryDx=0;entryDy=0;exitX=0.25;exitY=0;exitDx=0;exitDy=0;" edge="1" parent="1" source="AZ9LOgBD5vrPbiylxJBQ-14" target="AZ9LOgBD5vrPbiylxJBQ-45">
          <mxGeometry width="160" relative="1" as="geometry">
            <mxPoint x="-130" y="350" as="sourcePoint" />
            <mxPoint x="285" y="102" as="targetPoint" />
          </mxGeometry>
        </mxCell>
        <mxCell id="AZ9LOgBD5vrPbiylxJBQ-55" value="" style="endArrow=diamondThin;endFill=0;endSize=24;html=1;rounded=0;entryX=0;entryY=0.5;entryDx=0;entryDy=0;exitX=1;exitY=0.5;exitDx=0;exitDy=0;" edge="1" parent="1" source="AZ9LOgBD5vrPbiylxJBQ-15" target="AZ9LOgBD5vrPbiylxJBQ-32">
          <mxGeometry width="160" relative="1" as="geometry">
            <mxPoint x="70" y="310" as="sourcePoint" />
            <mxPoint x="230" y="310" as="targetPoint" />
          </mxGeometry>
        </mxCell>
        <mxCell id="AZ9LOgBD5vrPbiylxJBQ-56" value="" style="endArrow=block;dashed=1;endFill=0;endSize=12;html=1;rounded=0;entryX=0.538;entryY=1.128;entryDx=0;entryDy=0;entryPerimeter=0;exitX=0.567;exitY=0.019;exitDx=0;exitDy=0;exitPerimeter=0;" edge="1" parent="1" source="AZ9LOgBD5vrPbiylxJBQ-14" target="AZ9LOgBD5vrPbiylxJBQ-24">
          <mxGeometry width="160" relative="1" as="geometry">
            <mxPoint x="-125" y="356" as="sourcePoint" />
            <mxPoint x="100" y="272" as="targetPoint" />
          </mxGeometry>
        </mxCell>
        <mxCell id="AZ9LOgBD5vrPbiylxJBQ-59" value="" style="endArrow=block;dashed=1;endFill=0;endSize=12;html=1;rounded=0;exitX=0.5;exitY=0;exitDx=0;exitDy=0;" edge="1" parent="1" source="AZ9LOgBD5vrPbiylxJBQ-50">
          <mxGeometry width="160" relative="1" as="geometry">
            <mxPoint x="70" y="178" as="sourcePoint" />
            <mxPoint x="-290" y="190" as="targetPoint" />
          </mxGeometry>
        </mxCell>
        <mxCell id="AZ9LOgBD5vrPbiylxJBQ-60" value="" style="endArrow=diamondThin;endFill=0;endSize=24;html=1;rounded=0;entryX=0;entryY=0.5;entryDx=0;entryDy=0;exitX=1;exitY=0.5;exitDx=0;exitDy=0;" edge="1" parent="1" source="AZ9LOgBD5vrPbiylxJBQ-51" target="AZ9LOgBD5vrPbiylxJBQ-63">
          <mxGeometry width="160" relative="1" as="geometry">
            <mxPoint x="-10" y="405" as="sourcePoint" />
            <mxPoint x="150" y="495" as="targetPoint" />
          </mxGeometry>
        </mxCell>
        <mxCell id="AZ9LOgBD5vrPbiylxJBQ-61" value="PublisherImpl" style="swimlane;fontStyle=0;childLayout=stackLayout;horizontal=1;startSize=26;fillColor=none;horizontalStack=0;resizeParent=1;resizeParentMax=0;resizeLast=0;collapsible=1;marginBottom=0;whiteSpace=wrap;html=1;" vertex="1" parent="1">
          <mxGeometry x="-620" y="620" width="390" height="130" as="geometry" />
        </mxCell>
        <mxCell id="AZ9LOgBD5vrPbiylxJBQ-86" value="+&amp;nbsp;DomainParticipantImpl* participant_" style="text;strokeColor=none;fillColor=none;align=left;verticalAlign=top;spacingLeft=4;spacingRight=4;overflow=hidden;rotatable=0;points=[[0,0.5],[1,0.5]];portConstraint=eastwest;whiteSpace=wrap;html=1;" vertex="1" parent="AZ9LOgBD5vrPbiylxJBQ-61">
          <mxGeometry y="26" width="390" height="26" as="geometry" />
        </mxCell>
        <mxCell id="AZ9LOgBD5vrPbiylxJBQ-87" value="std::map&amp;lt;std::string, std::vector&amp;lt;DataWriterImpl*&amp;gt;&amp;gt; writers_" style="text;strokeColor=none;fillColor=none;align=left;verticalAlign=top;spacingLeft=4;spacingRight=4;overflow=hidden;rotatable=0;points=[[0,0.5],[1,0.5]];portConstraint=eastwest;whiteSpace=wrap;html=1;" vertex="1" parent="AZ9LOgBD5vrPbiylxJBQ-61">
          <mxGeometry y="52" width="390" height="26" as="geometry" />
        </mxCell>
        <mxCell id="AZ9LOgBD5vrPbiylxJBQ-62" value="+&amp;nbsp;Publisher* user_publisher_" style="text;strokeColor=none;fillColor=none;align=left;verticalAlign=top;spacingLeft=4;spacingRight=4;overflow=hidden;rotatable=0;points=[[0,0.5],[1,0.5]];portConstraint=eastwest;whiteSpace=wrap;html=1;" vertex="1" parent="AZ9LOgBD5vrPbiylxJBQ-61">
          <mxGeometry y="78" width="390" height="26" as="geometry" />
        </mxCell>
        <mxCell id="AZ9LOgBD5vrPbiylxJBQ-67" value="+&amp;nbsp;fastrtps::rtps::RTPSParticipant* rtps_participant_" style="text;strokeColor=none;fillColor=none;align=left;verticalAlign=top;spacingLeft=4;spacingRight=4;overflow=hidden;rotatable=0;points=[[0,0.5],[1,0.5]];portConstraint=eastwest;whiteSpace=wrap;html=1;" vertex="1" parent="AZ9LOgBD5vrPbiylxJBQ-61">
          <mxGeometry y="104" width="390" height="26" as="geometry" />
        </mxCell>
        <mxCell id="AZ9LOgBD5vrPbiylxJBQ-65" value="" style="endArrow=diamondThin;endFill=0;endSize=24;html=1;rounded=0;entryX=0;entryY=0.5;entryDx=0;entryDy=0;exitX=1;exitY=0.538;exitDx=0;exitDy=0;exitPerimeter=0;" edge="1" parent="1" source="AZ9LOgBD5vrPbiylxJBQ-62" target="AZ9LOgBD5vrPbiylxJBQ-31">
          <mxGeometry width="160" relative="1" as="geometry">
            <mxPoint x="-310" y="469" as="sourcePoint" />
            <mxPoint x="150" y="521" as="targetPoint" />
          </mxGeometry>
        </mxCell>
        <mxCell id="AZ9LOgBD5vrPbiylxJBQ-66" value="" style="endArrow=block;startArrow=block;endFill=1;startFill=1;html=1;rounded=0;exitX=0.519;exitY=1.071;exitDx=0;exitDy=0;exitPerimeter=0;entryX=0.463;entryY=0.01;entryDx=0;entryDy=0;entryPerimeter=0;" edge="1" parent="1" source="AZ9LOgBD5vrPbiylxJBQ-51" target="AZ9LOgBD5vrPbiylxJBQ-61">
          <mxGeometry width="160" relative="1" as="geometry">
            <mxPoint x="-250" y="510" as="sourcePoint" />
            <mxPoint x="-90" y="510" as="targetPoint" />
          </mxGeometry>
        </mxCell>
        <mxCell id="AZ9LOgBD5vrPbiylxJBQ-68" value="Use" style="endArrow=open;endSize=12;dashed=1;html=1;rounded=0;entryX=0.001;entryY=0.077;entryDx=0;entryDy=0;entryPerimeter=0;exitX=1;exitY=0.923;exitDx=0;exitDy=0;exitPerimeter=0;" edge="1" parent="1" source="AZ9LOgBD5vrPbiylxJBQ-62" target="AZ9LOgBD5vrPbiylxJBQ-34">
          <mxGeometry width="160" relative="1" as="geometry">
            <mxPoint x="-250" y="510" as="sourcePoint" />
            <mxPoint x="-90" y="510" as="targetPoint" />
          </mxGeometry>
        </mxCell>
        <mxCell id="AZ9LOgBD5vrPbiylxJBQ-69" value="DataWriterImpl" style="swimlane;fontStyle=0;childLayout=stackLayout;horizontal=1;startSize=26;fillColor=none;horizontalStack=0;resizeParent=1;resizeParentMax=0;resizeLast=0;collapsible=1;marginBottom=0;whiteSpace=wrap;html=1;" vertex="1" parent="1">
          <mxGeometry x="-110" y="940" width="210" height="182" as="geometry" />
        </mxCell>
        <mxCell id="AZ9LOgBD5vrPbiylxJBQ-70" value="+ PublisherImpl* publisher_" style="text;strokeColor=none;fillColor=none;align=left;verticalAlign=top;spacingLeft=4;spacingRight=4;overflow=hidden;rotatable=0;points=[[0,0.5],[1,0.5]];portConstraint=eastwest;whiteSpace=wrap;html=1;" vertex="1" parent="AZ9LOgBD5vrPbiylxJBQ-69">
          <mxGeometry y="26" width="210" height="26" as="geometry" />
        </mxCell>
        <mxCell id="AZ9LOgBD5vrPbiylxJBQ-71" value="+ fastrtps::rtps::RTPSWriter* writer_" style="text;strokeColor=none;fillColor=none;align=left;verticalAlign=top;spacingLeft=4;spacingRight=4;overflow=hidden;rotatable=0;points=[[0,0.5],[1,0.5]];portConstraint=eastwest;whiteSpace=wrap;html=1;" vertex="1" parent="AZ9LOgBD5vrPbiylxJBQ-69">
          <mxGeometry y="52" width="210" height="26" as="geometry" />
        </mxCell>
        <mxCell id="AZ9LOgBD5vrPbiylxJBQ-72" value="+ TypeSupport type_" style="text;strokeColor=none;fillColor=none;align=left;verticalAlign=top;spacingLeft=4;spacingRight=4;overflow=hidden;rotatable=0;points=[[0,0.5],[1,0.5]];portConstraint=eastwest;whiteSpace=wrap;html=1;" vertex="1" parent="AZ9LOgBD5vrPbiylxJBQ-69">
          <mxGeometry y="78" width="210" height="26" as="geometry" />
        </mxCell>
        <mxCell id="AZ9LOgBD5vrPbiylxJBQ-77" value="+&amp;nbsp;Topic* topic_" style="text;strokeColor=none;fillColor=none;align=left;verticalAlign=top;spacingLeft=4;spacingRight=4;overflow=hidden;rotatable=0;points=[[0,0.5],[1,0.5]];portConstraint=eastwest;whiteSpace=wrap;html=1;" vertex="1" parent="AZ9LOgBD5vrPbiylxJBQ-69">
          <mxGeometry y="104" width="210" height="26" as="geometry" />
        </mxCell>
        <mxCell id="AZ9LOgBD5vrPbiylxJBQ-78" value="+&amp;nbsp;DataWriterHistory history_" style="text;strokeColor=none;fillColor=none;align=left;verticalAlign=top;spacingLeft=4;spacingRight=4;overflow=hidden;rotatable=0;points=[[0,0.5],[1,0.5]];portConstraint=eastwest;whiteSpace=wrap;html=1;" vertex="1" parent="AZ9LOgBD5vrPbiylxJBQ-69">
          <mxGeometry y="130" width="210" height="26" as="geometry" />
        </mxCell>
        <mxCell id="AZ9LOgBD5vrPbiylxJBQ-79" value="+ DataWriter* user_datawriter_" style="text;strokeColor=none;fillColor=none;align=left;verticalAlign=top;spacingLeft=4;spacingRight=4;overflow=hidden;rotatable=0;points=[[0,0.5],[1,0.5]];portConstraint=eastwest;whiteSpace=wrap;html=1;" vertex="1" parent="AZ9LOgBD5vrPbiylxJBQ-69">
          <mxGeometry y="156" width="210" height="26" as="geometry" />
        </mxCell>
        <mxCell id="AZ9LOgBD5vrPbiylxJBQ-73" value="DataWriter" style="swimlane;fontStyle=0;childLayout=stackLayout;horizontal=1;startSize=26;fillColor=none;horizontalStack=0;resizeParent=1;resizeParentMax=0;resizeLast=0;collapsible=1;marginBottom=0;whiteSpace=wrap;html=1;" vertex="1" parent="1">
          <mxGeometry x="-390" y="1000" width="140" height="52" as="geometry" />
        </mxCell>
        <mxCell id="AZ9LOgBD5vrPbiylxJBQ-74" value="+&amp;nbsp;DataWriterImpl* impl_" style="text;strokeColor=none;fillColor=none;align=left;verticalAlign=top;spacingLeft=4;spacingRight=4;overflow=hidden;rotatable=0;points=[[0,0.5],[1,0.5]];portConstraint=eastwest;whiteSpace=wrap;html=1;" vertex="1" parent="AZ9LOgBD5vrPbiylxJBQ-73">
          <mxGeometry y="26" width="140" height="26" as="geometry" />
        </mxCell>
        <mxCell id="AZ9LOgBD5vrPbiylxJBQ-80" value="" style="endArrow=block;startArrow=block;endFill=1;startFill=1;html=1;rounded=0;exitX=-0.003;exitY=0.801;exitDx=0;exitDy=0;exitPerimeter=0;entryX=1;entryY=0.5;entryDx=0;entryDy=0;" edge="1" parent="1" source="AZ9LOgBD5vrPbiylxJBQ-72" target="AZ9LOgBD5vrPbiylxJBQ-74">
          <mxGeometry width="160" relative="1" as="geometry">
            <mxPoint x="-126" y="914" as="sourcePoint" />
            <mxPoint x="-130" y="1061" as="targetPoint" />
          </mxGeometry>
        </mxCell>
        <mxCell id="AZ9LOgBD5vrPbiylxJBQ-88" value="Use" style="endArrow=open;endSize=12;dashed=1;html=1;rounded=0;entryX=0.43;entryY=1.096;entryDx=0;entryDy=0;entryPerimeter=0;" edge="1" parent="1" source="AZ9LOgBD5vrPbiylxJBQ-69" target="AZ9LOgBD5vrPbiylxJBQ-15">
          <mxGeometry width="160" relative="1" as="geometry">
            <mxPoint x="-9" y="907" as="sourcePoint" />
            <mxPoint x="-100" y="420" as="targetPoint" />
          </mxGeometry>
        </mxCell>
        <mxCell id="AZ9LOgBD5vrPbiylxJBQ-89" value="" style="endArrow=diamondThin;endFill=0;endSize=24;html=1;rounded=0;entryX=0.791;entryY=0.987;entryDx=0;entryDy=0;exitX=-0.005;exitY=0.053;exitDx=0;exitDy=0;exitPerimeter=0;entryPerimeter=0;" edge="1" parent="1" source="AZ9LOgBD5vrPbiylxJBQ-69" target="AZ9LOgBD5vrPbiylxJBQ-67">
          <mxGeometry width="160" relative="1" as="geometry">
            <mxPoint x="-220" y="722" as="sourcePoint" />
            <mxPoint x="150" y="547" as="targetPoint" />
          </mxGeometry>
        </mxCell>
        <mxCell id="AZ9LOgBD5vrPbiylxJBQ-94" value="&lt;span style=&quot;text-align: left;&quot;&gt;DataWriterHistory&lt;/span&gt;" style="swimlane;fontStyle=0;childLayout=stackLayout;horizontal=1;startSize=26;fillColor=none;horizontalStack=0;resizeParent=1;resizeParentMax=0;resizeLast=0;collapsible=1;marginBottom=0;whiteSpace=wrap;html=1;" vertex="1" parent="1">
          <mxGeometry x="-400" y="1122" width="140" height="52" as="geometry" />
        </mxCell>
        <mxCell id="AZ9LOgBD5vrPbiylxJBQ-98" value="" style="endArrow=diamondThin;endFill=1;endSize=24;html=1;rounded=0;entryX=0.009;entryY=0.244;entryDx=0;entryDy=0;entryPerimeter=0;exitX=0.995;exitY=0.41;exitDx=0;exitDy=0;exitPerimeter=0;" edge="1" parent="1" source="AZ9LOgBD5vrPbiylxJBQ-94" target="AZ9LOgBD5vrPbiylxJBQ-78">
          <mxGeometry width="160" relative="1" as="geometry">
            <mxPoint x="-130" y="1208" as="sourcePoint" />
            <mxPoint x="-140" y="1110" as="targetPoint" />
          </mxGeometry>
        </mxCell>
        <mxCell id="AZ9LOgBD5vrPbiylxJBQ-99" value="RTPSWriter" style="swimlane;fontStyle=0;childLayout=stackLayout;horizontal=1;startSize=26;fillColor=none;horizontalStack=0;resizeParent=1;resizeParentMax=0;resizeLast=0;collapsible=1;marginBottom=0;whiteSpace=wrap;html=1;" vertex="1" parent="1">
          <mxGeometry x="260" y="1080" width="280" height="78" as="geometry" />
        </mxCell>
        <mxCell id="AZ9LOgBD5vrPbiylxJBQ-100" value="+ fastdds::rtps::FlowController* flow_controller_" style="text;strokeColor=none;fillColor=none;align=left;verticalAlign=top;spacingLeft=4;spacingRight=4;overflow=hidden;rotatable=0;points=[[0,0.5],[1,0.5]];portConstraint=eastwest;whiteSpace=wrap;html=1;" vertex="1" parent="AZ9LOgBD5vrPbiylxJBQ-99">
          <mxGeometry y="26" width="280" height="26" as="geometry" />
        </mxCell>
        <mxCell id="AZ9LOgBD5vrPbiylxJBQ-101" value="+ WriterHistory* mp_history" style="text;strokeColor=none;fillColor=none;align=left;verticalAlign=top;spacingLeft=4;spacingRight=4;overflow=hidden;rotatable=0;points=[[0,0.5],[1,0.5]];portConstraint=eastwest;whiteSpace=wrap;html=1;" vertex="1" parent="AZ9LOgBD5vrPbiylxJBQ-99">
          <mxGeometry y="52" width="280" height="26" as="geometry" />
        </mxCell>
        <mxCell id="AZ9LOgBD5vrPbiylxJBQ-103" value="StatefulWriter" style="swimlane;fontStyle=0;childLayout=stackLayout;horizontal=1;startSize=26;fillColor=none;horizontalStack=0;resizeParent=1;resizeParentMax=0;resizeLast=0;collapsible=1;marginBottom=0;whiteSpace=wrap;html=1;" vertex="1" parent="1">
          <mxGeometry x="-10" y="1230" width="400" height="78" as="geometry" />
        </mxCell>
        <mxCell id="AZ9LOgBD5vrPbiylxJBQ-104" value="+ ResourceLimitedVector&amp;lt;ReaderProxy*&amp;gt; matched_remote_readers_" style="text;strokeColor=none;fillColor=none;align=left;verticalAlign=top;spacingLeft=4;spacingRight=4;overflow=hidden;rotatable=0;points=[[0,0.5],[1,0.5]];portConstraint=eastwest;whiteSpace=wrap;html=1;" vertex="1" parent="AZ9LOgBD5vrPbiylxJBQ-103">
          <mxGeometry y="26" width="400" height="26" as="geometry" />
        </mxCell>
        <mxCell id="AZ9LOgBD5vrPbiylxJBQ-105" value="+ ResourceLimitedVector&amp;lt;ReaderProxy*&amp;gt; matched_readers_pool_" style="text;strokeColor=none;fillColor=none;align=left;verticalAlign=top;spacingLeft=4;spacingRight=4;overflow=hidden;rotatable=0;points=[[0,0.5],[1,0.5]];portConstraint=eastwest;whiteSpace=wrap;html=1;" vertex="1" parent="AZ9LOgBD5vrPbiylxJBQ-103">
          <mxGeometry y="52" width="400" height="26" as="geometry" />
        </mxCell>
        <mxCell id="AZ9LOgBD5vrPbiylxJBQ-109" value="" style="endArrow=open;endFill=1;endSize=12;html=1;rounded=0;exitX=-0.015;exitY=0.692;exitDx=0;exitDy=0;entryX=0.573;entryY=1.016;entryDx=0;entryDy=0;entryPerimeter=0;exitPerimeter=0;" edge="1" parent="1" source="AZ9LOgBD5vrPbiylxJBQ-70" target="AZ9LOgBD5vrPbiylxJBQ-67">
          <mxGeometry width="160" relative="1" as="geometry">
            <mxPoint x="-294" y="908" as="sourcePoint" />
            <mxPoint x="-266" y="810" as="targetPoint" />
          </mxGeometry>
        </mxCell>
        <mxCell id="AZ9LOgBD5vrPbiylxJBQ-111" value="" style="endArrow=diamondThin;endFill=1;endSize=24;html=1;rounded=0;entryX=1;entryY=0.5;entryDx=0;entryDy=0;exitX=-0.004;exitY=0.72;exitDx=0;exitDy=0;exitPerimeter=0;" edge="1" parent="1" source="AZ9LOgBD5vrPbiylxJBQ-100" target="AZ9LOgBD5vrPbiylxJBQ-77">
          <mxGeometry width="160" relative="1" as="geometry">
            <mxPoint x="-201" y="1131" as="sourcePoint" />
            <mxPoint x="-48" y="1036" as="targetPoint" />
          </mxGeometry>
        </mxCell>
      </root>
    </mxGraphModel>
  </diagram>
</mxfile>
